<svg id="Layer_1" data-name="Layer 1" xmlns="http://www.w3.org/2000/svg" width="3.0774in" height="0.5709in" viewBox="0 0 221.5727 41.1018">
  <defs>
    <style>
      .cls-1 {
        fill: #231f20;
      }
    </style>
  </defs>
  <title>SANVIO_LG_FN</title>
  <g>
    <g>
      <path class="cls-1" d="M19.8254,20.9742A23.64,23.64,0,0,0,14.97,19.1257a39.182,39.182,0,0,1-4.7893-1.5782,10.2622,10.2622,0,0,1-3.6223-2.4138,6.0712,6.0712,0,0,1-1.4218-4.32A6.741,6.741,0,0,1,5.825,7.6789,6.56,6.56,0,0,1,7.6564,5.4756a8.1763,8.1763,0,0,1,2.6965-1.334,11.68,11.68,0,0,1,3.28-.4569,9.13,9.13,0,0,1,4.2557.9344,9.0078,9.0078,0,0,1,3.13,2.8108l.1173.1642,3.4486-2.4808-.1232-.1642A11.4236,11.4236,0,0,0,19.7,1.1368,15.4983,15.4983,0,0,0,13.7428,0,16.3238,16.3238,0,0,0,8.9794.6925,12.4494,12.4494,0,0,0,4.9486,2.75,10.0035,10.0035,0,0,0,2.1576,6.155a10.2063,10.2063,0,0,0-1.0336,4.6587A11.2992,11.2992,0,0,0,1.99,15.4922a9.13,9.13,0,0,0,2.3217,3.16A12.5242,12.5242,0,0,0,7.5636,20.681c1.1813.51,2.4207.9722,3.6836,1.3745,1.2588.4019,2.4909.8065,3.6618,1.2023A16.6239,16.6239,0,0,1,18.0706,24.69a6.6412,6.6412,0,0,1,2.2042,2.0974,5.8759,5.8759,0,0,1,.8159,3.2277,6.8858,6.8858,0,0,1-.6633,3.0567,7.0447,7.0447,0,0,1-1.8084,2.314A8.4857,8.4857,0,0,1,15.92,36.8813a10.1791,10.1791,0,0,1-3.326.536,10.7119,10.7119,0,0,1-5.0752-1.18,9.0945,9.0945,0,0,1-3.6124-3.5881l-.1073-.1858L0,34.9961l.1227.1692a13.1664,13.1664,0,0,0,5.6108,4.581,18.5076,18.5076,0,0,0,7.134,1.3556,14.885,14.885,0,0,0,4.6025-.7209,11.7262,11.7262,0,0,0,3.9236-2.1433,10.4754,10.4754,0,0,0,2.7049-3.4853,10.7429,10.7429,0,0,0,1.0049-4.7378,9.7706,9.7706,0,0,0-1.5148-5.7792A10.6287,10.6287,0,0,0,19.8254,20.9742Z"/>
      <polygon class="cls-1" points="107.02 34.617 83.7 1.071 83.64 0.985 78.684 0.985 78.684 40.117 82.696 40.117 82.696 6.484 106.017 40.031 106.077 40.117 111.033 40.117 111.033 0.985 107.02 0.985 107.02 34.617"/>
      <polygon class="cls-1" points="137.801 34.575 125.517 1.116 125.468 0.985 121.154 0.985 135.697 39.986 135.746 40.117 139.635 40.117 154.503 0.985 150.242 0.985 137.801 34.575"/>
      <rect class="cls-1" x="164.6221" y="0.9846" width="4.0127" height="39.1326"/>
      <path class="cls-1" d="M220.0816,12.3258a19.6894,19.6894,0,0,0-4.1453-6.4934,18.9051,18.9051,0,0,0-6.3858-4.2854,22.5073,22.5073,0,0,0-16.4009,0,18.9032,18.9032,0,0,0-6.3858,4.2853,19.6894,19.6894,0,0,0-4.1453,6.4934,22.2027,22.2027,0,0,0-1.4911,8.225,22.4085,22.4085,0,0,0,1.4909,8.2521,19.625,19.625,0,0,0,4.1455,6.5212,18.5763,18.5763,0,0,0,6.387,4.2586,22.8874,22.8874,0,0,0,16.3985,0,18.5763,18.5763,0,0,0,6.387-4.2586,19.625,19.625,0,0,0,4.1455-6.5212,22.4085,22.4085,0,0,0,1.4909-8.2521A22.2027,22.2027,0,0,0,220.0816,12.3258ZM201.35,37.4172a16.8731,16.8731,0,0,1-6.7308-1.2964,15.0449,15.0449,0,0,1-5.1018-3.5626,15.85,15.85,0,0,1-3.2409-5.3484,19.2022,19.2022,0,0,1-1.1365-6.659,19.2,19.2,0,0,1,1.1365-6.6588,15.8484,15.8484,0,0,1,3.2409-5.3484,15.0449,15.0449,0,0,1,5.1018-3.5626,18.1194,18.1194,0,0,1,13.4614,0,15.042,15.042,0,0,1,5.1018,3.5626,15.8484,15.8484,0,0,1,3.2409,5.3484,19.2,19.2,0,0,1,1.1365,6.6588,19.2022,19.2022,0,0,1-1.1365,6.659,15.85,15.85,0,0,1-3.2409,5.3484,15.0435,15.0435,0,0,1-5.1018,3.5626A16.8724,16.8724,0,0,1,201.35,37.4172Z"/>
    </g>
    <path class="cls-1" d="M64.7455,40.1172h4.4862L52.7607.9846H48.7754L31.6964,40.1172h4.215l2.5036-5.8836H62.3487ZM50.6,5.6455l7.099,17.2151H43.26ZM39.9187,30.7l.369-.8672,1.4663-3.4391H59.155L60.9093,30.7Z"/>
  </g>
</svg>
