<svg data-name="Layer 1" xmlns="http://www.w3.org/2000/svg" width="295.43" height="54.806" viewBox="0 0 221.573 41.102"><path d="M19.825 20.974a23.64 23.64 0 0 0-4.855-1.848 39.182 39.182 0 0 1-4.79-1.579 10.262 10.262 0 0 1-3.622-2.413 6.071 6.071 0 0 1-1.421-4.32 6.741 6.741 0 0 1 .688-3.135 6.56 6.56 0 0 1 1.831-2.203 8.176 8.176 0 0 1 2.697-1.334 11.68 11.68 0 0 1 3.28-.457 9.13 9.13 0 0 1 4.256.934 9.008 9.008 0 0 1 3.13 2.81l.117.165 3.449-2.48-.124-.165A11.424 11.424 0 0 0 19.7 1.137 15.498 15.498 0 0 0 13.743 0a16.324 16.324 0 0 0-4.764.693A12.45 12.45 0 0 0 4.95 2.75a10.004 10.004 0 0 0-2.791 3.405 10.206 10.206 0 0 0-1.034 4.659 11.3 11.3 0 0 0 .866 4.678 9.13 9.13 0 0 0 2.322 3.16 12.524 12.524 0 0 0 3.252 2.029c1.18.51 2.42.972 3.683 1.375 1.259.401 2.491.806 3.662 1.202a16.624 16.624 0 0 1 3.162 1.432 6.641 6.641 0 0 1 2.204 2.097 5.876 5.876 0 0 1 .816 3.228 6.886 6.886 0 0 1-.664 3.057 7.045 7.045 0 0 1-1.808 2.314 8.486 8.486 0 0 1-2.699 1.495 10.18 10.18 0 0 1-3.326.536 10.712 10.712 0 0 1-5.075-1.18 9.095 9.095 0 0 1-3.613-3.588l-.107-.186L0 34.996l.123.17a13.166 13.166 0 0 0 5.61 4.58 18.508 18.508 0 0 0 7.135 1.356 14.885 14.885 0 0 0 4.602-.721 11.726 11.726 0 0 0 3.924-2.143 10.475 10.475 0 0 0 2.705-3.486 10.743 10.743 0 0 0 1.004-4.737 9.77 9.77 0 0 0-1.514-5.78 10.629 10.629 0 0 0-3.764-3.26zm87.195 13.643L83.7 1.071l-.06-.086h-4.956v39.132h4.012V6.484l23.321 33.547.06.086h4.956V.985h-4.013v33.632zm30.781-.042L125.517 1.116l-.049-.131h-4.314l14.543 39.001.049.131h3.889L154.503.985h-4.261l-12.441 33.59zM164.622.985h4.013v39.133h-4.013zm55.46 11.341a19.69 19.69 0 0 0-4.146-6.494 18.905 18.905 0 0 0-6.385-4.285 22.507 22.507 0 0 0-16.401 0 18.903 18.903 0 0 0-6.386 4.285 19.69 19.69 0 0 0-4.145 6.494 22.203 22.203 0 0 0-1.492 8.225 22.409 22.409 0 0 0 1.491 8.252 19.625 19.625 0 0 0 4.146 6.521 18.576 18.576 0 0 0 6.387 4.259 22.887 22.887 0 0 0 16.398 0 18.576 18.576 0 0 0 6.387-4.259 19.625 19.625 0 0 0 4.146-6.521 22.409 22.409 0 0 0 1.49-8.252 22.203 22.203 0 0 0-1.49-8.225zM201.35 37.417a16.873 16.873 0 0 1-6.73-1.296 15.045 15.045 0 0 1-5.103-3.563 15.85 15.85 0 0 1-3.24-5.348 19.202 19.202 0 0 1-1.137-6.66 19.2 19.2 0 0 1 1.137-6.658 15.848 15.848 0 0 1 3.24-5.348 15.045 15.045 0 0 1 5.102-3.563 18.12 18.12 0 0 1 13.462 0 15.042 15.042 0 0 1 5.101 3.563 15.848 15.848 0 0 1 3.241 5.348 19.2 19.2 0 0 1 1.137 6.659 19.202 19.202 0 0 1-1.137 6.659 15.85 15.85 0 0 1-3.24 5.348 15.043 15.043 0 0 1-5.102 3.563 16.872 16.872 0 0 1-6.731 1.296zm-136.604 2.7h4.486L52.76.985h-3.986L31.696 40.117h4.215l2.504-5.883h23.934zM50.6 5.646l7.099 17.215H43.26zM39.919 30.7l.369-.867 1.466-3.44h17.401l1.754 4.307z" fill="#231f20"/></svg>